<?xml version="1.0" encoding="UTF-8" standalone="no"?>
<!-- Created with Inkscape (http://www.inkscape.org/) -->

<svg
   xmlns:dc="http://purl.org/dc/elements/1.1/"
   xmlns:cc="http://creativecommons.org/ns#"
   xmlns:rdf="http://www.w3.org/1999/02/22-rdf-syntax-ns#"
   xmlns:svg="http://www.w3.org/2000/svg"
   xmlns="http://www.w3.org/2000/svg"
   version="1.1"
   width="64"
   height="64"
   id="svg2254">
  <defs
     id="defs2256" />
  <metadata
     id="metadata2259">
    <rdf:RDF>
      <cc:Work
         rdf:about="">
        <dc:format>image/svg+xml</dc:format>
        <dc:type
           rdf:resource="http://purl.org/dc/dcmitype/StillImage" />
        <dc:title></dc:title>
      </cc:Work>
    </rdf:RDF>
  </metadata>
  <g
     id="layer1">
    <g
       transform="translate(-0.3874817,0.4517632)"
       id="g2268">
      <rect
         width="57.096474"
         height="57.096474"
         rx="12.266822"
         ry="12.266822"
         x="3.8392448"
         y="3"
         id="rect3168"
         style="fill:#0948a3;fill-opacity:1" />
      <rect
         width="54.866142"
         height="54.866142"
         rx="11.151655"
         ry="11.151655"
         x="4.9544101"
         y="4.1151657"
         id="rect3170"
         style="fill:#638db8;fill-opacity:1" />
      <rect
         width="52.635811"
         height="52.635811"
         rx="10.482555"
         ry="10.482555"
         x="6.0695753"
         y="5.2303309"
         id="rect3172"
         style="fill:#2f79bf;fill-opacity:1" />
      <g
         id="text2989"
         style="font-size:54.41897202px;font-style:normal;font-weight:normal;line-height:125%;letter-spacing:0px;word-spacing:0px;fill:#ffffff;fill-opacity:1;stroke:none;font-family:Sans">
        <path
           d="m 39.787718,14.639007 c 0.974276,1.027476 1.696142,2.183346 2.165599,3.467615 0.469411,1.284333 0.704128,2.679349 0.704151,4.185053 -2.3e-5,3.277208 -1.045178,5.952097 -3.135468,8.024673 -2.09033,2.072615 -4.960078,3.321486 -8.609251,3.746618 l 0,5.87236 -2.444602,0 0,-10.070698 c 1.116003,-0.08855 2.223159,-0.270126 3.32147,-0.544722 1.098286,-0.274554 2.08144,-0.721845 2.949466,-1.341874 0.903423,-0.655414 1.607574,-1.448137 2.112455,-2.378173 0.504845,-0.929986 0.757277,-2.227572 0.757295,-3.892763 -1.8e-5,-2.657145 -0.562453,-4.694312 -1.687307,-6.111506 -1.124887,-1.417125 -2.767906,-2.125704 -4.929062,-2.125741 -0.814878,3.7e-5 -1.527886,0.11961 -2.139027,0.358719 -0.611159,0.239182 -1.05845,0.465042 -1.341874,0.67758 0.08856,0.425183 0.208137,1.036333 0.358719,1.833452 0.150564,0.797186 0.225851,1.408335 0.22586,1.833451 -9e-6,0.655468 -0.283441,1.253333 -0.850297,1.793595 -0.566871,0.540322 -1.390595,0.810468 -2.471174,0.810438 -0.956588,3e-5 -1.638596,-0.327689 -2.046025,-0.983155 -0.407437,-0.655406 -0.611154,-1.417129 -0.611151,-2.285172 -3e-6,-0.708547 0.194857,-1.403841 0.584579,-2.085883 0.389715,-0.681973 1.000865,-1.341838 1.833452,-1.979596 0.708574,-0.566828 1.669585,-1.053976 2.883036,-1.461447 1.213434,-0.407396 2.475592,-0.611112 3.786476,-0.611151 1.877724,3.9e-5 3.542887,0.296756 4.995492,0.890154 1.452571,0.593473 2.648299,1.386197 3.587188,2.378173 z m -6.377223,32.258121 c -1.5e-5,0.992015 -0.358733,1.837882 -1.076157,2.537603 -0.71745,0.699723 -1.572174,1.049585 -2.564175,1.049585 -0.992022,0 -1.846746,-0.349862 -2.564175,-1.049585 -0.717445,-0.699721 -1.076164,-1.545588 -1.076157,-2.537603 -7e-6,-0.992008 0.358712,-1.846733 1.076157,-2.564175 0.717429,-0.717431 1.572153,-1.07615 2.564175,-1.076157 0.992001,7e-6 1.846725,0.358726 2.564175,1.076157 0.717424,0.717442 1.076142,1.572167 1.076157,2.564175 z"
           id="path2994"
           style="font-variant:normal;font-stretch:normal;fill:#ffffff;font-family:Georgia;-inkscape-font-specification:Georgia" />
      </g>
    </g>
  </g>
</svg>
